<?xml version="1.0" encoding="utf-8"?>
<!-- Generator: Adobe Illustrator 26.3.1, SVG Export Plug-In . SVG Version: 6.00 Build 0)  -->
<svg version="1.1" id="Layer_1" xmlns="http://www.w3.org/2000/svg" xmlns:xlink="http://www.w3.org/1999/xlink" x="0px" y="0px"
	 viewBox="0 0 415.5 415.5" style="enable-background:new 0 0 415.5 415.5;" xml:space="preserve">
<style type="text/css">
	.st0{fill:#A1A19F;}
	.st1{fill:#6BBF43;}
	.st2{display:none;opacity:0.4;fill:#FFF9B4;}
	.st3{fill:#FFFFFF;}
</style>
<polygon class="st0" points="268.3,171.8 268.3,245.4 318.7,245.4 318.7,232.4 283.5,232.4 283.5,171.8 "/>
<circle class="st1" cx="207.8" cy="207.8" r="207.8"/>
<path class="st2" d="M3.8,211.6C3.8,96.9,96.9,3.8,211.6,3.8c56.4,0,107.6,22.5,145,59C318.9,24.1,266.2,0,207.8,0
	C93,0,0,93,0,207.8c0,58.4,24.1,111.1,62.8,148.8C26.3,319.2,3.8,268,3.8,211.6z"/>
<polyline class="st3" points="57.3,254.9 161.4,254.9 161.4,359.5 254.5,359.5 254.5,254.9 359.1,254.9 359.1,162.1 254.3,162.1 
	254.3,58 161.4,58 161.4,162.1 57.3,162.1 57.3,254.9 "/>
<rect x="165" y="231.2" class="st0" width="13.6" height="14.3"/>
<rect x="253.3" y="231.2" class="st0" width="13.6" height="14.3"/>
<path class="st0" d="M246,171.9h-43.1c-11.6,0-21,9.4-21,21l0,0c0,11.6,9.4,21,21,21h21.4c5.1,0,9.3,4.1,9.3,9.3l0,0
	c0,5.1-4.1,9.3-9.3,9.3h-39.6v13.1h44c12.1,0,21.9-9.8,21.9-21.9l0,0c0-12.1-9.8-21.9-21.9-21.9H207c-4.7,0-8.5-3.8-8.5-8.5l0,0
	c0-4.7,3.8-8.5,8.5-8.5h38.9L246,171.9L246,171.9z"/>
<g>
	<polygon class="st0" points="294.4,176.1 307.6,176.1 307.6,171.3 310,171.3 310,184.3 307.8,184.3 307.8,178.9 294.4,178.9 	"/>
	<path class="st0" d="M294.7,197.5h2.6v-5.9c0-1.7,1.4-3.1,3.1-3.1h0.8v8.9h2.7v-8.9h0.6c1.7,0,3.1,1.4,3.1,3.1v5.9h2.5v-5.8
		c0-3.4-2.7-6.1-6.1-6.1h-3.1c-3.4,0-6.1,2.7-6.1,6.1L294.7,197.5L294.7,197.5z"/>
	<path class="st0" d="M294.7,211.4h2.6v-5.1c0-2.2,1.8-3.9,3.9-3.9h2.1c2.2,0,3.9,1.8,3.9,3.9v5.1h2.8v-5.8c0-3.5-2.8-6.3-6.3-6.3
		H301c-3.5,0-6.3,2.8-6.3,6.3V211.4z"/>
	<polygon class="st0" points="294.7,213.8 294.7,216.7 301.3,216.7 301.3,222.9 294.7,222.9 294.7,226.2 310,226.2 310,222.9 
		303.7,222.9 303.7,216.7 310,216.7 310,213.8 	"/>
</g>
<path class="st0" d="M268.3,171.8h15.1v49.6c0,6.1,4.9,11,11,11h24.2v13.1h-26.8c-13,0-23.5-10.5-23.5-23.5L268.3,171.8L268.3,171.8
	z"/>
<path class="st0" d="M96.1,171.9v73.5h47.3c5,0,9.5-2,12.8-5.3s5.3-7.8,5.3-12.8c0,0,0.7-13.9-10.5-18.9
	c11.3-6.1,10.5-18.5,10.5-18.5c0-5-2-9.5-5.3-12.8s-7.8-5.3-12.8-5.3L96.1,171.9L96.1,171.9z M144.5,223.9c0,4.7-3.8,8.6-8.6,8.6
	h-24.3v-17.1h24.3C140.7,215.3,144.5,219.2,144.5,223.9L144.5,223.9L144.5,223.9z M144.5,193.3c0,5-4,9-9,9h-23.9v-18h23.9
	C140.5,184.3,144.5,188.4,144.5,193.3L144.5,193.3z"/>
</svg>
